# AST/ASF file generated using VICON BodyLanguage
# -----------------------------------------------
:version 1.10
:name VICON
:units
  mass 1.0
  length 0.45
  angle deg
:documentation
   .ast/.asf automatically generated from VICON data using
   VICON BodyBuilder and BodyLanguage model FoxedUp or BRILLIANT.MOD
:root
   order TX TY TZ RX RY RZ
   axis XYZ
   position 0 0 0  
   orientation 0 0 0 
:bonedata
  begin
     id 1 
     name lhipjoint
     direction 0.624716 -0.669793 0.401383 
     length 2.38238 
     axis 0 0 0  XYZ
  end
  begin
     id 2 
     name lfemur
     direction 0.34202 -0.939693 0  
     length 6.4574  
     axis 0 0 20  XYZ
    dof rx ry rz
    limits (-160.0 20.0)
           (-70.0 70.0)
           (-60.0 70.0)
  end
  begin
     id 3 
     name ltibia
     direction 0.34202 -0.939693 0   
     length 7.68739   
     axis 0 0 20   XYZ
    dof rx
    limits (-10.0 170.0)
  end
  begin
     id 4 
     name lfoot
     direction 0.0681309 -0.187188 0.979959   
     length 2.46615   
     axis -90 7.62852e-016 20   XYZ
    dof rx rz
    limits (-45.0 90.0)
           (-70.0 20.0)
  end
  begin
     id 5 
     name ltoes
     direction 1.53566e-011 -4.21819e-011 1   
     length 1.2376   
     axis -90 7.62852e-016 20   XYZ
    dof rx
    limits (-90.0 20.0)
  end
  begin
     id 6 
     name rhipjoint
     direction -0.644473 -0.655875 0.393043   
     length 2.43293  
     axis 0 0 0  XYZ 
  end
  begin
     id 7 
     name rfemur
     direction -0.34202 -0.939693 0   
     length 6.7025   
     axis 0 0 -20   XYZ
    dof rx ry rz
    limits (-160.0 20.0)
           (-70.0 70.0)
           (-70.0 60.0)
  end
  begin
     id 8 
     name rtibia
     direction -0.34202 -0.939693 0   
     length 7.80547   
     axis 0 0 -20   XYZ
    dof rx
    limits (-10.0 170.0)
 end
 begin
     id 9 
     name rfoot
     direction -0.0756734 -0.207911 0.975216   
     length 2.40315  
     axis -90 -7.62852e-016 -20   XYZ
    dof rx rz
    limits (-45.0 90.0)
           (-20.0 70.0)
  end
  begin
     id 10 
     name rtoes
     direction -1.5353e-011 -4.21879e-011 1   
     length 1.20477   
     axis -90 -7.62852e-016 -20   XYZ
    dof rx
    limits (-90.0 20.0)
  end
  begin
     id 11 
     name lowerback
     direction 0.0160353 0.987463 -0.157037   
     length 2.18572   
     axis 0 0 0   XYZ
    dof rx ry rz
    limits (-20.0 45.0)
           (-30.0 30.0)
           (-30.0 30.0)
  end
  begin
     id 12 
     name upperback
     direction -0.00499661 0.999756 0.0215076   
     length 2.18016   
     axis 0 0 0   XYZ
    dof rx ry rz
    limits (-20.0 45.0)
           (-30.0 30.0)
           (-30.0 30.0)
  end
  begin
     id 13 
     name thorax
     direction -0.00921346 0.995333 0.0960619   
     length 2.24923   
     axis 0 0 0   XYZ
    dof rx ry rz
    limits (-20.0 45.0)
           (-30.0 30.0)
           (-30.0 30.0)
  end
  begin
     id 14 
     name lowerneck
     direction 0.0274184 0.991181 0.12965   
     length 1.70911   
     axis 0 0 0   XYZ
    dof rx ry rz
    limits (-20.0 45.0)
           (-30.0 30.0)
           (-30.0 30.0)
  end
  begin
     id 15 
     name upperneck
     direction 0.0015627 0.999959 -0.00893559   
     length 1.69312   
     axis 0 0 0   XYZ
    dof rx ry rz
    limits (-20.0 45.0)
           (-30.0 30.0)
           (-30.0 30.0)
  end
  begin
     id 16
     name head
     direction -0.00230242 0.999856 -0.0168327  
     length 1.80241  
     axis 0 0 0   XYZ
    dof rx ry rz
    limits (-20.0 45.0)
           (-30.0 30.0)
           (-30.0 30.0)
  end
  begin
     id 17 
     name lclavicle
     direction 0.955523 0.290741 -0.0494489  
     length 3.84275  
     axis 0 0 0   XYZ
    dof ry rz
    limits (-20.0 10.0)
           (0.0 20.0)
  end
  begin
     id 18 
     name lhumerus
     direction 1 -4.48967e-011 -3.18382e-028   
     length 5.17714   
     axis 180 -30 -90   XYZ
    dof rx ry rz
    limits (-60.0 90.0)
           (-90.0 90.0)
           (-90.0 90.0)
  end
  begin
     id 19
     name lradius
     direction 1 -4.48968e-011 -2.22911e-027   
     length 3.43679   
     axis 180 -30 -90   XYZ
    dof rx
    limits (-10.0 170.0)
  end
  begin
     id 20
     name lwrist
     direction 1 -4.48951e-011 -6.32245e-027   
     length 1.7184   
     axis 3.57107e-015 90 90   XYZ
    dof ry
    limits (-180.0 0.0)
 end
  begin
     id 21 
     name lhand
     direction 1 -4.48924e-011 -1.26431e-026   
     length 0.573117   
     axis 8.06912e-015 90 90   XYZ
    dof rx rz
    limits (-90.0 90.0)
           (-45.0 45.0)
  end
  begin
     id 22 
     name lfingers
     direction 1 -4.49001e-011 -2.52965e-026   
     length 0.462062   
     axis 1.61381e-014 90 90   XYZ
    dof rx
    limits (0.0 90.0)
  end
  begin
     id 23
     name lthumb
     direction 0.707107 -6.35008e-011 0.707107   
     length 0.663431   
     axis -90 45 -1.62303e-014   XYZ
    dof rx rz
    limits (-45.0 45.0)
           (-45.0 45.0)
  end
  begin
     id 24 
     name rclavicle
     direction -0.963917 0.256881 -0.0698287   
     length 3.73057  
     axis 0 0 0   XYZ 
    dof ry rz
    limits (-10.0 20.0)
           (-20.0 0.0)
  end
  begin
     id 25 
     name rhumerus
     direction -1 -4.48962e-011 -2.73982e-027  
     length 5.23908   
     axis 180 30 90   XYZ
    dof rx ry rz
    limits (-90.0 60.0)
           (-90.0 90.0)
           (-90.0 90.0)
  end
  begin
     id 26 
     name rradius
     direction -1 -4.48968e-011 -4.33218e-027   
     length 3.46485   
     axis 180 30 90   XYZ
    dof rx
    limits (-10.0 170.0)
  end
  begin
     id 27 
     name rwrist
     direction -1 -4.48989e-011 -6.32372e-027   
     length 1.73243   
     axis 3.57107e-015 -90 -90   XYZ
    dof ry
    limits (-180.0 0.0)
  end
  begin
     id 28
     name rhand
     direction -1 -4.48948e-011 -1.26448e-026   
     length 0.608752   
     axis 8.06912e-015 -90 -90   XYZ
    dof rx rz
    limits (-90.0 90.0)
           (-45.0 45.0)
  end
  begin
     id 29
     name rfingers
     direction -1 -4.48962e-011 -2.52913e-026   
     length 0.490792   
     axis 1.61381e-014 -90 -90   XYZ
    dof rx
    limits (0.0 90.0)
  end
  begin
     id 30
     name rthumb
     direction -0.707107 -6.34878e-011 0.707107   
     length 0.704682   
     axis -90 -45 1.62303e-014   XYZ
    dof rx rz
    limits (-45.0 45.0)
           (-45.0 45.0)
  end
:hierarchy
  begin
    root lhipjoint rhipjoint lowerback
    lhipjoint lfemur
    lfemur ltibia
    ltibia lfoot
    lfoot ltoes
    rhipjoint rfemur
    rfemur rtibia
    rtibia rfoot
    rfoot rtoes
    lowerback upperback
    upperback thorax
    thorax lowerneck lclavicle rclavicle
    lowerneck upperneck
    upperneck head
    lclavicle lhumerus
    lhumerus lradius
    lradius lwrist
    lwrist lhand lthumb
    lhand lfingers
    rclavicle rhumerus
    rhumerus rradius
    rradius rwrist
    rwrist rhand rthumb
    rhand rfingers
  end

#!OML:ASF G:\JayActor3\Patient Classification 1\Patient 1\Session 6\male.ASF
:FULLY-SPECIFIED
:DEGREES
479
root 16.4335 15.8059 -13.1658 172.087 -25.9965 -182.69
lowerback 0.43076 -4.12411 -1.57454
upperback 0.890594 -5.50879 -0.865259
thorax 0.734637 -2.76763 -0.023755
lowerneck 1.6285 9.99614 6.36401
upperneck 5.08747 13.2858 -0.603051
head 1.81503 6.6994 -1.03668
rclavicle 2.28354e-014 -1.59028e-015
rhumerus -8.77855 -12.2401 -47.8825
rradius 35.6994
rwrist -34.8388
rhand -23.0717 -18.4004
rfingers 7.12502
rthumb 3.37386 -48.3535
lclavicle 2.28354e-014 -1.59028e-015
lhumerus -4.51187 16.7098 74.2878
lradius 37.627
lwrist 53.7469
lhand -37.8838 7.77126
lfingers 7.12502
lthumb -10.9272 37.4669
rfemur -27.0836 12.0008 20.9809
rtibia 60.279
rfoot -17.9529 -15.1618
rtoes -10.9272
lfemur 4.0478 11.9579 -25.7774
ltibia 26.5148
lfoot -19.3486 3.61137
ltoes 2.7835
480
root 16.3195 15.8122 -13.3047 172.299 -26.2799 -182.8
lowerback 0.424554 -4.25424 -1.82052
upperback 0.890589 -5.68254 -0.854763
thorax 0.765168 -2.85648 0.119796
lowerneck 1.35219 10.0721 6.42832
upperneck 5.40555 13.3687 -0.710316
head 1.98398 6.74342 -1.05194
rclavicle -4.08502e-014 -1.19271e-014
rhumerus -8.85321 -12.7425 -47.0671
rradius 35.4378
rwrist -34.4738
rhand -22.8931 -18.4242
rfingers 7.12502
rthumb 3.54629 -48.3745
lclavicle -4.08502e-014 -1.19271e-014
lhumerus -4.4479 16.2832 74.6359
lradius 37.5746
lwrist 53.7883
lhand -37.4061 8.1064
lfingers 7.12502
lthumb -10.4664 37.8259
rfemur -27.5319 12.1733 20.8165
rtibia 57.5742
rfoot -18.1005 -15.0847
rtoes -11.1114
lfemur 5.01551 12.058 -25.8971
ltibia 25.6696
lfoot -19.3253 3.3291
ltoes 2.45083
481
root 16.2056 15.8196 -13.4435 172.509 -26.5632 -182.912
lowerback 0.421561 -4.37866 -2.05986
upperback 0.889898 -5.84877 -0.846805
thorax 0.793644 -2.94157 0.257032
lowerneck 1.0946 10.1423 6.50425
upperneck 5.70401 13.4459 -0.819897
head 2.14552 6.78408 -1.0713
rclavicle 2.07481e-014 -8.34896e-015
rhumerus -8.93382 -13.2598 -46.2382
rradius 35.2023
rwrist -34.1321
rhand -22.7197 -18.4702
rfingers 7.12502
rthumb 3.71374 -48.4175
lclavicle 2.07481e-014 -8.34896e-015
lhumerus -4.38107 15.7927 74.9819
lradius 37.5311
lwrist 53.9015
lhand -36.929 8.55251
lfingers 7.12502
lthumb -10.0062 38.2947
rfemur -27.9025 12.3039 20.6363
rtibia 54.7899
rfoot -17.8826 -14.6239
rtoes -11.3288
lfemur 6.04579 12.1984 -25.995
ltibia 24.7192
lfoot -19.2421 3.02094
ltoes 2.07581
482
root 16.0916 15.8275 -13.5818 172.702 -26.8485 -183.015
lowerback 0.432249 -4.49715 -2.27726
upperback 0.889903 -6.00752 -0.842806
thorax 0.813736 -3.02278 0.379104
lowerneck 0.852872 10.2062 6.59153
upperneck 5.98895 13.5158 -0.927032
head 2.30154 6.8207 -1.09303
rclavicle 5.46658e-016 -1.98785e-015
rhumerus -9.02966 -13.7806 -45.392
rradius 35.0016
rwrist -33.8258
rhand -22.5551 -18.5266
rfingers 7.12502
rthumb 3.87269 -48.4711
lclavicle 5.46658e-016 -1.98785e-015
lhumerus -4.31041 15.2762 75.3362
lradius 37.4976
lwrist 54.0434
lhand -36.4841 9.03166
lfingers 7.12502
lthumb -9.57694 38.794
rfemur -28.1912 12.3944 20.4537
rtibia 51.9678
rfoot -17.303 -13.8188
rtoes -11.765
lfemur 7.14448 12.3845 -26.0622
ltibia 23.6788
lfoot -19.0995 2.68334
ltoes 1.66266
483
root 15.9767 15.8356 -13.7199 172.881 -27.1395 -183.108
lowerback 0.445069 -4.61496 -2.46087
upperback 0.888672 -6.16545 -0.842805
thorax 0.828539 -3.1033 0.478675
lowerneck 0.642717 10.2632 6.68353
upperneck 6.25239 13.5786 -1.03222
head 2.44595 6.85334 -1.11748
rclavicle -2.48481e-017 1.11319e-014
rhumerus -9.12754 -14.3218 -44.5377
rradius 34.8255
rwrist -33.5185
rhand -22.4196 -18.5811
rfingers 7.12502
rthumb 4.00357 -48.5232
lclavicle -2.48481e-017 1.11319e-014
lhumerus -4.23642 14.7729 75.6961
lradius 37.448
lwrist 54.139
lhand -36.0359 9.51458
lfingers 7.12502
lthumb -9.14442 39.2963
rfemur -28.4075 12.4466 20.2712
rtibia 49.1523
rfoot -16.4324 -12.7651
rtoes -12.4201
lfemur 8.30167 12.5933 -26.107
ltibia 22.5585
lfoot -18.8939 2.33741
ltoes 1.26738
484
root 15.861 15.8438 -13.8577 173.042 -27.4321 -183.172
lowerback 0.448808 -4.72981 -2.59501
upperback 0.888703 -6.31899 -0.842166
thorax 0.845275 -3.18126 0.55088
lowerneck 0.458263 10.3112 6.77285
upperneck 6.49475 13.6309 -1.12842
head 2.57831 6.88037 -1.14118
rclavicle 1.24638e-013 1.59028e-014
rhumerus -9.22853 -14.8818 -43.6722
rradius 34.675
rwrist -33.1987
rhand -22.3025 -18.6147
rfingers 7.12502
rthumb 4.11662 -48.5547
lclavicle 1.24638e-013 1.59028e-014
lhumerus -4.15244 14.2899 76.0665
lradius 37.383
lwrist 54.2057
lhand -35.5861 9.98352
lfingers 7.12502
lthumb -8.71043 39.7838
rfemur -28.5644 12.4661 20.1115
rtibia 46.384
rfoot -15.3202 -11.5887
rtoes -13.2403
lfemur 9.50603 12.8073 -26.1168
ltibia 21.3704
lfoot -18.6278 1.99153
ltoes 0.89225
485
root 15.7446 15.8524 -13.9958 173.197 -27.7259 -183.21
lowerback 0.430588 -4.84124 -2.68885
upperback 0.88579 -6.46701 -0.836904
thorax 0.867844 -3.2561 0.603817
lowerneck 0.296798 10.3497 6.84916
upperneck 6.72603 13.6712 -1.21113
head 2.7009 6.90108 -1.16078
rclavicle 6.24929e-014 3.97569e-016
rhumerus -9.33156 -15.4503 -42.7918
rradius 34.5525
rwrist -32.8732
rhand -22.2356 -18.629
rfingers 7.12502
rthumb 4.18126 -48.5678
lclavicle 6.24929e-014 3.97569e-016
lhumerus -4.06567 13.8215 76.4559
lradius 37.3073
lwrist 54.2373
lhand -35.1522 10.3861
lfingers 7.12502
lthumb -8.29164 40.2033
rfemur -28.6811 12.4551 19.972
rtibia 43.7048
rfoot -13.9975 -10.4218
rtoes -14.1473
lfemur 10.7448 12.9978 -26.1036
ltibia 20.1176
lfoot -18.2966 1.66428
ltoes 0.518782
486
root 15.6284 15.862 -14.134 173.353 -28.0207 -183.217
lowerback 0.379296 -4.95225 -2.74874
upperback 0.878083 -6.61297 -0.820656
thorax 0.901829 -3.32962 0.646307
lowerneck 0.15916 10.3799 6.90579
upperneck 6.94223 13.7017 -1.28009
head 2.81148 6.91633 -1.17528
rclavicle 1.99282e-014 7.55382e-015
rhumerus -9.42228 -16.0279 -41.9076
rradius 34.4528
rwrist -32.5252
rhand -22.2328 -18.6173
rfingers 7.12502
rthumb 4.18393 -48.556
lclavicle 1.99282e-014 7.55382e-015
lhumerus -3.98081 13.367 76.8605
lradius 37.226
lwrist 54.2504
lhand -34.7844 10.6931
lfingers 7.12502
lthumb -7.93672 40.5241
rfemur -28.7784 12.419 19.8611
rtibia 41.1478
rfoot -12.5069 -9.3702
rtoes -14.9298
lfemur 11.9958 13.1484 -26.0625
ltibia 18.8111
lfoot -17.9012 1.35266
ltoes 0.134052
487
root 15.5129 15.8731 -14.2726 173.517 -28.3178 -183.204
lowerback 0.297461 -5.05669 -2.79464
upperback 0.864884 -6.74887 -0.796255
thorax 0.946615 -3.39796 0.68658
lowerneck 0.0344372 10.3963 6.95365
upperneck 7.15186 13.7143 -1.34114
head 2.91579 6.92245 -1.18772
rclavicle -1.23992e-014 1.23246e-014
rhumerus -9.5107 -16.6263 -41.0142
rradius 34.372
rwrist -32.1363
rhand -22.2881 -18.5951
rfingers 7.12502
rthumb 4.13055 -48.5348
lclavicle -1.23992e-014 1.23246e-014
lhumerus -3.89732 12.9044 77.2825
lradius 37.143
lwrist 54.2315
lhand -34.4494 10.9153
lfingers 7.12502
lthumb -7.61332 40.7583
rfemur -28.8654 12.356 19.7701
rtibia 38.7482
rfoot -10.9048 -8.49086
rtoes -15.4339
lfemur 13.2498 13.2444 -26.0068
ltibia 17.4599
lfoot -17.441 1.06024
ltoes -0.316751
488
root 15.3985 15.8846 -14.4116 173.687 -28.6164 -183.174
lowerback 0.190341 -5.15871 -2.8343
upperback 0.844802 -6.88046 -0.7601
thorax 0.999316 -3.46403 0.732885
lowerneck -0.072574 10.4056 6.98046
upperneck 7.35492 13.7182 -1.38961
head 3.01178 6.9237 -1.1946
rclavicle -1.37658e-014 -1.98785e-015
rhumerus -9.58576 -17.2302 -40.1205
rradius 34.3107
rwrist -31.7197
rhand -22.4077 -18.5673
rfingers 7.12502
rthumb 4.01508 -48.5093
lclavicle -1.37658e-014 -1.98785e-015
lhumerus -3.8357 12.4343 77.7157
lradius 37.0752
lwrist 54.1858
lhand -34.1794 11.0626
lfingers 7.12502
lthumb -7.35275 40.9148
rfemur -28.9424 12.2494 19.7127
rtibia 36.5317
rfoot -9.24054 -7.80735
rtoes -15.7869
lfemur 14.4939 13.2908 -25.933
ltibia 16.0933
lfoot -16.9218 0.77251
ltoes -0.862298
489
root 15.2851 15.8961 -14.551 173.859 -28.9205 -183.14
lowerback 0.0712317 -5.26022 -2.88042
upperback 0.819318 -7.01085 -0.71808
thorax 1.05495 -3.52951 0.787232
lowerneck -0.163602 10.4098 7.00804
upperneck 7.55144 13.7163 -1.4403
head 3.10299 6.9219 -1.20375
rclavicle -2.09469e-014 -5.56597e-015
rhumerus -9.64814 -17.8389 -39.2343
rradius 34.2684
rwrist -31.2665
rhand -22.5826 -18.5444
rfingers 7.12502
rthumb 3.84618 -48.4894
lclavicle -2.09469e-014 -5.56597e-015
lhumerus -3.80644 11.9435 78.1475
lradius 37.031
lwrist 54.1268
lhand -33.9717 11.1564
lfingers 7.12502
lthumb -7.15226 41.0156
rfemur -29.001 12.1073 19.6818
rtibia 34.528
rfoot -7.62385 -7.30414
rtoes -15.8923
lfemur 15.7222 13.3126 -25.8411
ltibia 14.7403
lfoot -16.3492 0.461712
ltoes -1.55265
490
root 15.173 15.9066 -14.6905 174.007 -29.225 -183.086
lowerback -0.0430516 -5.35741 -2.91329
upperback 0.794479 -7.13565 -0.671354
thorax 1.10769 -3.5921 0.839245
lowerneck -0.238702 10.408 7.0375
upperneck 7.74272 13.7075 -1.49204
head 3.18973 6.91641 -1.21503
rclavicle -2.79044e-014 1.19271e-014
rhumerus -9.70534 -18.4491 -38.3567
rradius 34.2452
rwrist -30.7876
rhand -22.7873 -18.5344
rfingers 7.12502
rthumb 3.6485 -48.4829
lclavicle -2.79044e-014 1.19271e-014
lhumerus -3.81079 11.4359 78.5776
lradius 37.0145
lwrist 54.0416
lhand -33.8125 11.2349
lfingers 7.12502
lthumb -6.99856 41.0992
rfemur -29.0217 11.9098 19.7118
rtibia 32.7591
rfoot -6.10573 -6.93626
rtoes -15.7304
lfemur 16.9292 13.3248 -25.7059
ltibia 13.4475
lfoot -15.7375 0.116317
ltoes -2.36366
491
root 15.0613 15.916 -14.8305 174.128 -29.5306 -183.018
lowerback -0.151445 -5.45275 -2.9315
upperback 0.77052 -7.25829 -0.623857
thorax 1.15656 -3.65347 0.884289
lowerneck -0.295728 10.4043 7.07038
upperneck 7.93638 13.697 -1.54587
head 3.27472 6.90994 -1.22864
rclavicle -4.14466e-014 9.54166e-015
rhumerus -9.75369 -19.055 -37.4925
rradius 34.2429
rwrist -30.2889
rhand -23.0051 -18.5465
rfingers 7.12502
rthumb 3.43813 -48.4986
lclavicle -4.14466e-014 9.54166e-015
lhumerus -3.85758 10.9167 79.0013
lradius 37.0237
lwrist 53.9394
lhand -33.6998 11.2945
lfingers 7.12502
lthumb -6.88976 41.1624
rfemur -28.9956 11.631 19.8038
rtibia 31.2508
rfoot -4.72616 -6.66569
rtoes -15.3193
lfemur 18.1044 13.3327 -25.5363
ltibia 12.2554
lfoot -15.1029 -0.254305
ltoes -3.31423
492
root 14.9497 15.9241 -14.971 174.2 -29.8303 -182.93
lowerback -0.245923 -5.54375 -2.92236
upperback 0.756114 -7.37581 -0.578288
thorax 1.20384 -3.71221 0.913254
lowerneck -0.339123 10.3988 7.11001
upperneck 8.13385 13.6846 -1.60288
head 3.3596 6.90238 -1.2452
rclavicle -7.50412e-014 6.75868e-015
rhumerus -9.78651 -19.6566 -36.6486
rradius 34.2548
rwrist -29.7863
rhand -23.2208 -18.5739
rfingers 7.12502
rthumb 3.22984 -48.5292
lclavicle -7.50412e-014 6.75868e-015
lhumerus -3.93863 10.3881 79.411
lradius 37.0528
lwrist 53.8431
lhand -33.6138 11.3794
lfingers 7.12502
lthumb -6.80674 41.25
rfemur -28.9043 11.2414 19.9796
rtibia 30.022
rfoot -3.47652 -6.44719
rtoes -14.6098
lfemur 19.2439 13.3362 -25.326
ltibia 11.2057
lfoot -14.4633 -0.636504
ltoes -4.36993
493
root 14.8378 15.9312 -15.1121 174.221 -30.1166 -182.821
lowerback -0.325246 -5.62681 -2.88455
upperback 0.75124 -7.48354 -0.534191
thorax 1.24833 -3.76593 0.926273
lowerneck -0.374545 10.3913 7.1504
upperneck 8.3459 13.6692 -1.65787
head 3.44817 6.89312 -1.26154
rclavicle 1.12288e-013 -1.27222e-014
rhumerus -9.80566 -20.2437 -35.8204
rradius 34.2834
rwrist -29.3012
rhand -23.4355 -18.61
rfingers 7.12502
rthumb 3.02249 -48.5683
lclavicle 1.12288e-013 -1.27222e-014
lhumerus -4.05401 9.84766 79.8113
lradius 37.0975
lwrist 53.7429
lhand -33.5024 11.4946
lfingers 7.12502
lthumb -6.69923 41.3687
rfemur -28.7468 10.7319 20.2387
rtibia 29.0934
rfoot -2.33809 -6.27028
rtoes -13.6773
lfemur 20.3346 13.3212 -25.0879
ltibia 10.328
lfoot -13.8294 -0.999324
ltoes -5.46991
